<?xml version="1.0" encoding="UTF-8"?>
<svg xmlns="http://www.w3.org/2000/svg" xmlns:xlink="http://www.w3.org/1999/xlink" width="311pt" height="150pt" viewBox="0 0 311 150" version="1.1">
<defs>
<clipPath id="clip1">
  <path d="M 46.777344 126.25 L 69.277344 126.25 L 69.277344 148.75 L 46.777344 148.75 Z M 46.777344 126.25 "/>
</clipPath>
<clipPath id="clip2">
  <path d="M 91.777344 126.25 L 114.277344 126.25 L 114.277344 148.75 L 91.777344 148.75 Z M 91.777344 126.25 "/>
</clipPath>
<clipPath id="clip3">
  <path d="M 69.277344 126.25 L 91.777344 126.25 L 91.777344 148.75 L 69.277344 148.75 Z M 69.277344 126.25 "/>
</clipPath>
<clipPath id="clip4">
  <path d="M 24.277344 126.25 L 46.777344 126.25 L 46.777344 148.75 L 24.277344 148.75 Z M 24.277344 126.25 "/>
</clipPath>
<clipPath id="clip5">
  <path d="M 91.777344 81.25 L 114.277344 81.25 L 114.277344 103.75 L 91.777344 103.75 Z M 91.777344 81.25 "/>
</clipPath>
<clipPath id="clip6">
  <path d="M 91.777344 103.75 L 114.277344 103.75 L 114.277344 126.25 L 91.777344 126.25 Z M 91.777344 103.75 "/>
</clipPath>
<clipPath id="clip7">
  <path d="M 91.777344 58.75 L 114.277344 58.75 L 114.277344 81.25 L 91.777344 81.25 Z M 91.777344 58.75 "/>
</clipPath>
</defs>
<g id="surface1">
<g clip-path="url(#clip1)" clip-rule="nonzero">
<path style="fill-rule:nonzero;fill:rgb(100%,100%,100%);fill-opacity:1;stroke-width:2;stroke-linecap:round;stroke-linejoin:round;stroke:rgb(0%,0%,0%);stroke-opacity:1;stroke-dasharray:1,4;stroke-miterlimit:10;" d="M 48.421875 236 L 66.421875 236 L 66.421875 254 L 48.421875 254 Z M 48.421875 236 " transform="matrix(1.25,0,0,1.25,-13.75,-168.75)"/>
</g>
<path style=" stroke:none;fill-rule:nonzero;fill:rgb(0%,0%,0%);fill-opacity:1;" d="M 55.367188 136.660156 C 55.367188 135.710938 55.464844 134.941406 55.660156 134.355469 C 55.855469 133.769531 56.140625 133.320312 56.519531 133.007812 C 56.910156 132.695312 57.398438 132.539062 57.984375 132.539062 C 58.425781 132.539062 58.8125 132.632812 59.136719 132.8125 C 59.460938 132.984375 59.730469 133.234375 59.9375 133.554688 C 60.144531 133.882812 60.308594 134.277344 60.425781 134.746094 C 60.554688 135.214844 60.621094 135.855469 60.621094 136.660156 C 60.621094 137.597656 60.523438 138.359375 60.328125 138.945312 C 60.132812 139.523438 59.839844 139.96875 59.449219 140.292969 C 59.070312 140.605469 58.582031 140.761719 57.984375 140.761719 C 57.214844 140.761719 56.609375 140.484375 56.167969 139.921875 C 55.632812 139.257812 55.367188 138.171875 55.367188 136.660156 Z M 56.382812 136.660156 C 56.382812 137.976562 56.53125 138.859375 56.832031 139.296875 C 57.144531 139.726562 57.527344 139.941406 57.984375 139.941406 C 58.441406 139.941406 58.824219 139.726562 59.136719 139.296875 C 59.449219 138.859375 59.605469 137.976562 59.605469 136.660156 C 59.605469 135.332031 59.449219 134.453125 59.136719 134.023438 C 58.824219 133.585938 58.441406 133.359375 57.984375 133.359375 C 57.527344 133.359375 57.164062 133.550781 56.890625 133.925781 C 56.550781 134.421875 56.382812 135.332031 56.382812 136.660156 Z M 56.382812 136.660156 "/>
<path style="fill-rule:nonzero;fill:rgb(69.803922%,85.098039%,100%);fill-opacity:1;stroke-width:1;stroke-linecap:round;stroke-linejoin:round;stroke:rgb(0%,0%,0%);stroke-opacity:1;stroke-dasharray:1,4;stroke-miterlimit:10;" d="M 12.421875 236 L 30.421875 236 L 30.421875 254 L 12.421875 254 Z M 12.421875 236 " transform="matrix(1.25,0,0,1.25,-13.75,-168.75)"/>
<path style=" stroke:none;fill-rule:nonzero;fill:rgb(0%,0%,0%);fill-opacity:1;" d="M 10.367188 136.660156 C 10.367188 135.710938 10.464844 134.941406 10.660156 134.355469 C 10.855469 133.769531 11.140625 133.320312 11.519531 133.007812 C 11.910156 132.695312 12.398438 132.539062 12.984375 132.539062 C 13.425781 132.539062 13.8125 132.632812 14.136719 132.8125 C 14.460938 132.984375 14.730469 133.234375 14.9375 133.554688 C 15.144531 133.882812 15.308594 134.277344 15.425781 134.746094 C 15.554688 135.214844 15.621094 135.855469 15.621094 136.660156 C 15.621094 137.597656 15.523438 138.359375 15.328125 138.945312 C 15.132812 139.523438 14.839844 139.96875 14.449219 140.292969 C 14.070312 140.605469 13.582031 140.761719 12.984375 140.761719 C 12.214844 140.761719 11.609375 140.484375 11.167969 139.921875 C 10.632812 139.257812 10.367188 138.171875 10.367188 136.660156 Z M 11.382812 136.660156 C 11.382812 137.976562 11.53125 138.859375 11.832031 139.296875 C 12.144531 139.726562 12.527344 139.941406 12.984375 139.941406 C 13.441406 139.941406 13.824219 139.726562 14.136719 139.296875 C 14.449219 138.859375 14.605469 137.976562 14.605469 136.660156 C 14.605469 135.332031 14.449219 134.453125 14.136719 134.023438 C 13.824219 133.585938 13.441406 133.359375 12.984375 133.359375 C 12.527344 133.359375 12.164062 133.550781 11.890625 133.925781 C 11.550781 134.421875 11.382812 135.332031 11.382812 136.660156 Z M 11.382812 136.660156 "/>
<g clip-path="url(#clip2)" clip-rule="nonzero">
<path style="fill-rule:nonzero;fill:rgb(100%,100%,100%);fill-opacity:1;stroke-width:2;stroke-linecap:round;stroke-linejoin:round;stroke:rgb(0%,0%,0%);stroke-opacity:1;stroke-dasharray:1,4;stroke-miterlimit:10;" d="M 84.421875 236 L 102.421875 236 L 102.421875 254 L 84.421875 254 Z M 84.421875 236 " transform="matrix(1.25,0,0,1.25,-13.75,-168.75)"/>
</g>
<path style=" stroke:none;fill-rule:nonzero;fill:rgb(0%,0%,0%);fill-opacity:1;" d="M 100.367188 136.660156 C 100.367188 135.710938 100.464844 134.941406 100.660156 134.355469 C 100.855469 133.769531 101.140625 133.320312 101.519531 133.007812 C 101.910156 132.695312 102.398438 132.539062 102.984375 132.539062 C 103.425781 132.539062 103.8125 132.632812 104.136719 132.8125 C 104.460938 132.984375 104.730469 133.234375 104.9375 133.554688 C 105.144531 133.882812 105.308594 134.277344 105.425781 134.746094 C 105.554688 135.214844 105.621094 135.855469 105.621094 136.660156 C 105.621094 137.597656 105.523438 138.359375 105.328125 138.945312 C 105.132812 139.523438 104.839844 139.96875 104.449219 140.292969 C 104.070312 140.605469 103.582031 140.761719 102.984375 140.761719 C 102.214844 140.761719 101.609375 140.484375 101.167969 139.921875 C 100.632812 139.257812 100.367188 138.171875 100.367188 136.660156 Z M 101.382812 136.660156 C 101.382812 137.976562 101.53125 138.859375 101.832031 139.296875 C 102.144531 139.726562 102.527344 139.941406 102.984375 139.941406 C 103.441406 139.941406 103.824219 139.726562 104.136719 139.296875 C 104.449219 138.859375 104.605469 137.976562 104.605469 136.660156 C 104.605469 135.332031 104.449219 134.453125 104.136719 134.023438 C 103.824219 133.585938 103.441406 133.359375 102.984375 133.359375 C 102.527344 133.359375 102.164062 133.550781 101.890625 133.925781 C 101.550781 134.421875 101.382812 135.332031 101.382812 136.660156 Z M 101.382812 136.660156 "/>
<g clip-path="url(#clip3)" clip-rule="nonzero">
<path style="fill-rule:nonzero;fill:rgb(100%,100%,100%);fill-opacity:1;stroke-width:2;stroke-linecap:round;stroke-linejoin:round;stroke:rgb(0%,0%,0%);stroke-opacity:1;stroke-dasharray:1,4;stroke-miterlimit:10;" d="M 66.421875 236 L 84.421875 236 L 84.421875 254 L 66.421875 254 Z M 66.421875 236 " transform="matrix(1.25,0,0,1.25,-13.75,-168.75)"/>
</g>
<path style=" stroke:none;fill-rule:nonzero;fill:rgb(0%,0%,0%);fill-opacity:1;" d="M 77.867188 136.660156 C 77.867188 135.710938 77.964844 134.941406 78.160156 134.355469 C 78.355469 133.769531 78.640625 133.320312 79.019531 133.007812 C 79.410156 132.695312 79.898438 132.539062 80.484375 132.539062 C 80.925781 132.539062 81.3125 132.632812 81.636719 132.8125 C 81.960938 132.984375 82.230469 133.234375 82.4375 133.554688 C 82.644531 133.882812 82.808594 134.277344 82.925781 134.746094 C 83.054688 135.214844 83.121094 135.855469 83.121094 136.660156 C 83.121094 137.597656 83.023438 138.359375 82.828125 138.945312 C 82.632812 139.523438 82.339844 139.96875 81.949219 140.292969 C 81.570312 140.605469 81.082031 140.761719 80.484375 140.761719 C 79.714844 140.761719 79.109375 140.484375 78.667969 139.921875 C 78.132812 139.257812 77.867188 138.171875 77.867188 136.660156 Z M 78.882812 136.660156 C 78.882812 137.976562 79.03125 138.859375 79.332031 139.296875 C 79.644531 139.726562 80.027344 139.941406 80.484375 139.941406 C 80.941406 139.941406 81.324219 139.726562 81.636719 139.296875 C 81.949219 138.859375 82.105469 137.976562 82.105469 136.660156 C 82.105469 135.332031 81.949219 134.453125 81.636719 134.023438 C 81.324219 133.585938 80.941406 133.359375 80.484375 133.359375 C 80.027344 133.359375 79.664062 133.550781 79.390625 133.925781 C 79.050781 134.421875 78.882812 135.332031 78.882812 136.660156 Z M 78.882812 136.660156 "/>
<g clip-path="url(#clip4)" clip-rule="nonzero">
<path style="fill-rule:nonzero;fill:rgb(69.803922%,85.098039%,100%);fill-opacity:1;stroke-width:2;stroke-linecap:round;stroke-linejoin:round;stroke:rgb(0%,0%,0%);stroke-opacity:1;stroke-dasharray:1,4;stroke-miterlimit:10;" d="M 30.421875 236 L 48.421875 236 L 48.421875 254 L 30.421875 254 Z M 30.421875 236 " transform="matrix(1.25,0,0,1.25,-13.75,-168.75)"/>
</g>
<path style=" stroke:none;fill-rule:nonzero;fill:rgb(0%,0%,0%);fill-opacity:1;" d="M 32.867188 136.660156 C 32.867188 135.710938 32.964844 134.941406 33.160156 134.355469 C 33.355469 133.769531 33.640625 133.320312 34.019531 133.007812 C 34.410156 132.695312 34.898438 132.539062 35.484375 132.539062 C 35.925781 132.539062 36.3125 132.632812 36.636719 132.8125 C 36.960938 132.984375 37.230469 133.234375 37.4375 133.554688 C 37.644531 133.882812 37.808594 134.277344 37.925781 134.746094 C 38.054688 135.214844 38.121094 135.855469 38.121094 136.660156 C 38.121094 137.597656 38.023438 138.359375 37.828125 138.945312 C 37.632812 139.523438 37.339844 139.96875 36.949219 140.292969 C 36.570312 140.605469 36.082031 140.761719 35.484375 140.761719 C 34.714844 140.761719 34.109375 140.484375 33.667969 139.921875 C 33.132812 139.257812 32.867188 138.171875 32.867188 136.660156 Z M 33.882812 136.660156 C 33.882812 137.976562 34.03125 138.859375 34.332031 139.296875 C 34.644531 139.726562 35.027344 139.941406 35.484375 139.941406 C 35.941406 139.941406 36.324219 139.726562 36.636719 139.296875 C 36.949219 138.859375 37.105469 137.976562 37.105469 136.660156 C 37.105469 135.332031 36.949219 134.453125 36.636719 134.023438 C 36.324219 133.585938 35.941406 133.359375 35.484375 133.359375 C 35.027344 133.359375 34.664062 133.550781 34.390625 133.925781 C 34.050781 134.421875 33.882812 135.332031 33.882812 136.660156 Z M 33.882812 136.660156 "/>
<g clip-path="url(#clip5)" clip-rule="nonzero">
<path style="fill-rule:nonzero;fill:rgb(100%,100%,100%);fill-opacity:1;stroke-width:2;stroke-linecap:round;stroke-linejoin:round;stroke:rgb(0%,0%,0%);stroke-opacity:1;stroke-dasharray:1,4;stroke-miterlimit:10;" d="M 84.421875 200 L 102.421875 200 L 102.421875 218 L 84.421875 218 Z M 84.421875 200 " transform="matrix(1.25,0,0,1.25,-13.75,-168.75)"/>
</g>
<path style=" stroke:none;fill-rule:nonzero;fill:rgb(0%,0%,0%);fill-opacity:1;" d="M 100.367188 91.660156 C 100.367188 90.710938 100.464844 89.941406 100.660156 89.355469 C 100.855469 88.769531 101.140625 88.320312 101.519531 88.007812 C 101.910156 87.695312 102.398438 87.539062 102.984375 87.539062 C 103.425781 87.539062 103.8125 87.632812 104.136719 87.8125 C 104.460938 87.984375 104.730469 88.234375 104.9375 88.554688 C 105.144531 88.882812 105.308594 89.277344 105.425781 89.746094 C 105.554688 90.214844 105.621094 90.855469 105.621094 91.660156 C 105.621094 92.597656 105.523438 93.359375 105.328125 93.945312 C 105.132812 94.523438 104.839844 94.96875 104.449219 95.292969 C 104.070312 95.605469 103.582031 95.761719 102.984375 95.761719 C 102.214844 95.761719 101.609375 95.484375 101.167969 94.921875 C 100.632812 94.257812 100.367188 93.171875 100.367188 91.660156 Z M 101.382812 91.660156 C 101.382812 92.976562 101.53125 93.859375 101.832031 94.296875 C 102.144531 94.726562 102.527344 94.941406 102.984375 94.941406 C 103.441406 94.941406 103.824219 94.726562 104.136719 94.296875 C 104.449219 93.859375 104.605469 92.976562 104.605469 91.660156 C 104.605469 90.332031 104.449219 89.453125 104.136719 89.023438 C 103.824219 88.585938 103.441406 88.359375 102.984375 88.359375 C 102.527344 88.359375 102.164062 88.550781 101.890625 88.925781 C 101.550781 89.421875 101.382812 90.332031 101.382812 91.660156 Z M 101.382812 91.660156 "/>
<g clip-path="url(#clip6)" clip-rule="nonzero">
<path style="fill-rule:nonzero;fill:rgb(100%,100%,100%);fill-opacity:1;stroke-width:2;stroke-linecap:round;stroke-linejoin:round;stroke:rgb(0%,0%,0%);stroke-opacity:1;stroke-dasharray:1,4;stroke-miterlimit:10;" d="M 84.421875 218 L 102.421875 218 L 102.421875 236 L 84.421875 236 Z M 84.421875 218 " transform="matrix(1.25,0,0,1.25,-13.75,-168.75)"/>
</g>
<path style=" stroke:none;fill-rule:nonzero;fill:rgb(0%,0%,0%);fill-opacity:1;" d="M 100.367188 114.160156 C 100.367188 113.210938 100.464844 112.441406 100.660156 111.855469 C 100.855469 111.269531 101.140625 110.820312 101.519531 110.507812 C 101.910156 110.195312 102.398438 110.039062 102.984375 110.039062 C 103.425781 110.039062 103.8125 110.132812 104.136719 110.3125 C 104.460938 110.484375 104.730469 110.734375 104.9375 111.054688 C 105.144531 111.382812 105.308594 111.777344 105.425781 112.246094 C 105.554688 112.714844 105.621094 113.355469 105.621094 114.160156 C 105.621094 115.097656 105.523438 115.859375 105.328125 116.445312 C 105.132812 117.023438 104.839844 117.46875 104.449219 117.792969 C 104.070312 118.105469 103.582031 118.261719 102.984375 118.261719 C 102.214844 118.261719 101.609375 117.984375 101.167969 117.421875 C 100.632812 116.757812 100.367188 115.671875 100.367188 114.160156 Z M 101.382812 114.160156 C 101.382812 115.476562 101.53125 116.359375 101.832031 116.796875 C 102.144531 117.226562 102.527344 117.441406 102.984375 117.441406 C 103.441406 117.441406 103.824219 117.226562 104.136719 116.796875 C 104.449219 116.359375 104.605469 115.476562 104.605469 114.160156 C 104.605469 112.832031 104.449219 111.953125 104.136719 111.523438 C 103.824219 111.085938 103.441406 110.859375 102.984375 110.859375 C 102.527344 110.859375 102.164062 111.050781 101.890625 111.425781 C 101.550781 111.921875 101.382812 112.832031 101.382812 114.160156 Z M 101.382812 114.160156 "/>
<g clip-path="url(#clip7)" clip-rule="nonzero">
<path style="fill-rule:nonzero;fill:rgb(100%,100%,100%);fill-opacity:1;stroke-width:2;stroke-linecap:round;stroke-linejoin:round;stroke:rgb(0%,0%,0%);stroke-opacity:1;stroke-dasharray:1,4;stroke-miterlimit:10;" d="M 84.421875 182 L 102.421875 182 L 102.421875 200 L 84.421875 200 Z M 84.421875 182 " transform="matrix(1.25,0,0,1.25,-13.75,-168.75)"/>
</g>
<path style=" stroke:none;fill-rule:nonzero;fill:rgb(0%,0%,0%);fill-opacity:1;" d="M 100.367188 69.160156 C 100.367188 68.210938 100.464844 67.441406 100.660156 66.855469 C 100.855469 66.269531 101.140625 65.820312 101.519531 65.507812 C 101.910156 65.195312 102.398438 65.039062 102.984375 65.039062 C 103.425781 65.039062 103.8125 65.132812 104.136719 65.3125 C 104.460938 65.484375 104.730469 65.734375 104.9375 66.054688 C 105.144531 66.382812 105.308594 66.777344 105.425781 67.246094 C 105.554688 67.714844 105.621094 68.355469 105.621094 69.160156 C 105.621094 70.097656 105.523438 70.859375 105.328125 71.445312 C 105.132812 72.023438 104.839844 72.46875 104.449219 72.792969 C 104.070312 73.105469 103.582031 73.261719 102.984375 73.261719 C 102.214844 73.261719 101.609375 72.984375 101.167969 72.421875 C 100.632812 71.757812 100.367188 70.671875 100.367188 69.160156 Z M 101.382812 69.160156 C 101.382812 70.476562 101.53125 71.359375 101.832031 71.796875 C 102.144531 72.226562 102.527344 72.441406 102.984375 72.441406 C 103.441406 72.441406 103.824219 72.226562 104.136719 71.796875 C 104.449219 71.359375 104.605469 70.476562 104.605469 69.160156 C 104.605469 67.832031 104.449219 66.953125 104.136719 66.523438 C 103.824219 66.085938 103.441406 65.859375 102.984375 65.859375 C 102.527344 65.859375 102.164062 66.050781 101.890625 66.425781 C 101.550781 66.921875 101.382812 67.832031 101.382812 69.160156 Z M 101.382812 69.160156 "/>
<path style="fill-rule:nonzero;fill:rgb(100%,100%,100%);fill-opacity:1;stroke-width:1;stroke-linecap:round;stroke-linejoin:round;stroke:rgb(0%,0%,0%);stroke-opacity:1;stroke-dasharray:1,4;stroke-miterlimit:10;" d="M 84.421875 164 L 102.421875 164 L 102.421875 182 L 84.421875 182 Z M 84.421875 164 " transform="matrix(1.25,0,0,1.25,-13.75,-168.75)"/>
<path style=" stroke:none;fill-rule:nonzero;fill:rgb(0%,0%,0%);fill-opacity:1;" d="M 100.367188 46.660156 C 100.367188 45.710938 100.464844 44.941406 100.660156 44.355469 C 100.855469 43.769531 101.140625 43.320312 101.519531 43.007812 C 101.910156 42.695312 102.398438 42.539062 102.984375 42.539062 C 103.425781 42.539062 103.8125 42.632812 104.136719 42.8125 C 104.460938 42.984375 104.730469 43.234375 104.9375 43.554688 C 105.144531 43.882812 105.308594 44.277344 105.425781 44.746094 C 105.554688 45.214844 105.621094 45.855469 105.621094 46.660156 C 105.621094 47.597656 105.523438 48.359375 105.328125 48.945312 C 105.132812 49.523438 104.839844 49.96875 104.449219 50.292969 C 104.070312 50.605469 103.582031 50.761719 102.984375 50.761719 C 102.214844 50.761719 101.609375 50.484375 101.167969 49.921875 C 100.632812 49.257812 100.367188 48.171875 100.367188 46.660156 Z M 101.382812 46.660156 C 101.382812 47.976562 101.53125 48.859375 101.832031 49.296875 C 102.144531 49.726562 102.527344 49.941406 102.984375 49.941406 C 103.441406 49.941406 103.824219 49.726562 104.136719 49.296875 C 104.449219 48.859375 104.605469 47.976562 104.605469 46.660156 C 104.605469 45.332031 104.449219 44.453125 104.136719 44.023438 C 103.824219 43.585938 103.441406 43.359375 102.984375 43.359375 C 102.527344 43.359375 102.164062 43.550781 101.890625 43.925781 C 101.550781 44.421875 101.382812 45.332031 101.382812 46.660156 Z M 101.382812 46.660156 "/>
<path style="fill-rule:nonzero;fill:rgb(100%,100%,100%);fill-opacity:1;stroke-width:1;stroke-linecap:round;stroke-linejoin:round;stroke:rgb(0%,0%,0%);stroke-opacity:1;stroke-dasharray:1,4;stroke-miterlimit:10;" d="M 12.421875 200 L 30.421875 200 L 30.421875 218 L 12.421875 218 Z M 12.421875 200 " transform="matrix(1.25,0,0,1.25,-13.75,-168.75)"/>
<path style=" stroke:none;fill-rule:nonzero;fill:rgb(0%,0%,0%);fill-opacity:1;" d="M 10.367188 91.660156 C 10.367188 90.710938 10.464844 89.941406 10.660156 89.355469 C 10.855469 88.769531 11.140625 88.320312 11.519531 88.007812 C 11.910156 87.695312 12.398438 87.539062 12.984375 87.539062 C 13.425781 87.539062 13.8125 87.632812 14.136719 87.8125 C 14.460938 87.984375 14.730469 88.234375 14.9375 88.554688 C 15.144531 88.882812 15.308594 89.277344 15.425781 89.746094 C 15.554688 90.214844 15.621094 90.855469 15.621094 91.660156 C 15.621094 92.597656 15.523438 93.359375 15.328125 93.945312 C 15.132812 94.523438 14.839844 94.96875 14.449219 95.292969 C 14.070312 95.605469 13.582031 95.761719 12.984375 95.761719 C 12.214844 95.761719 11.609375 95.484375 11.167969 94.921875 C 10.632812 94.257812 10.367188 93.171875 10.367188 91.660156 Z M 11.382812 91.660156 C 11.382812 92.976562 11.53125 93.859375 11.832031 94.296875 C 12.144531 94.726562 12.527344 94.941406 12.984375 94.941406 C 13.441406 94.941406 13.824219 94.726562 14.136719 94.296875 C 14.449219 93.859375 14.605469 92.976562 14.605469 91.660156 C 14.605469 90.332031 14.449219 89.453125 14.136719 89.023438 C 13.824219 88.585938 13.441406 88.359375 12.984375 88.359375 C 12.527344 88.359375 12.164062 88.550781 11.890625 88.925781 C 11.550781 89.421875 11.382812 90.332031 11.382812 91.660156 Z M 11.382812 91.660156 "/>
<path style="fill-rule:nonzero;fill:rgb(69.803922%,85.098039%,100%);fill-opacity:1;stroke-width:1;stroke-linecap:round;stroke-linejoin:round;stroke:rgb(0%,0%,0%);stroke-opacity:1;stroke-miterlimit:10;" d="M 48.421875 182 L 66.421875 182 L 66.421875 200 L 48.421875 200 Z M 48.421875 182 " transform="matrix(1.25,0,0,1.25,-13.75,-168.75)"/>
<path style=" stroke:none;fill-rule:nonzero;fill:rgb(0%,0%,0%);fill-opacity:1;" d="M 59.097656 73.125 L 58.101562 73.125 L 58.101562 66.816406 C 57.867188 67.050781 57.554688 67.285156 57.164062 67.519531 C 56.773438 67.742188 56.429688 67.90625 56.128906 68.007812 L 56.128906 67.050781 C 56.675781 66.804688 57.15625 66.5 57.574219 66.132812 C 57.992188 65.757812 58.285156 65.390625 58.453125 65.039062 L 59.097656 65.039062 Z M 59.097656 73.125 "/>
<path style="fill-rule:nonzero;fill:rgb(100%,100%,100%);fill-opacity:1;stroke-width:1;stroke-linecap:round;stroke-linejoin:round;stroke:rgb(0%,0%,0%);stroke-opacity:1;stroke-dasharray:4,4;stroke-miterlimit:10;" d="M 30.421875 182 L 48.421875 182 L 48.421875 200 L 30.421875 200 Z M 30.421875 182 " transform="matrix(1.25,0,0,1.25,-13.75,-168.75)"/>
<path style=" stroke:none;fill-rule:nonzero;fill:rgb(0%,0%,0%);fill-opacity:1;" d="M 32.867188 69.160156 C 32.867188 68.210938 32.964844 67.441406 33.160156 66.855469 C 33.355469 66.269531 33.640625 65.820312 34.019531 65.507812 C 34.410156 65.195312 34.898438 65.039062 35.484375 65.039062 C 35.925781 65.039062 36.3125 65.132812 36.636719 65.3125 C 36.960938 65.484375 37.230469 65.734375 37.4375 66.054688 C 37.644531 66.382812 37.808594 66.777344 37.925781 67.246094 C 38.054688 67.714844 38.121094 68.355469 38.121094 69.160156 C 38.121094 70.097656 38.023438 70.859375 37.828125 71.445312 C 37.632812 72.023438 37.339844 72.46875 36.949219 72.792969 C 36.570312 73.105469 36.082031 73.261719 35.484375 73.261719 C 34.714844 73.261719 34.109375 72.984375 33.667969 72.421875 C 33.132812 71.757812 32.867188 70.671875 32.867188 69.160156 Z M 33.882812 69.160156 C 33.882812 70.476562 34.03125 71.359375 34.332031 71.796875 C 34.644531 72.226562 35.027344 72.441406 35.484375 72.441406 C 35.941406 72.441406 36.324219 72.226562 36.636719 71.796875 C 36.949219 71.359375 37.105469 70.476562 37.105469 69.160156 C 37.105469 67.832031 36.949219 66.953125 36.636719 66.523438 C 36.324219 66.085938 35.941406 65.859375 35.484375 65.859375 C 35.027344 65.859375 34.664062 66.050781 34.390625 66.425781 C 34.050781 66.921875 33.882812 67.832031 33.882812 69.160156 Z M 33.882812 69.160156 "/>
<path style="fill-rule:nonzero;fill:rgb(69.803922%,85.098039%,100%);fill-opacity:1;stroke-width:1;stroke-linecap:round;stroke-linejoin:round;stroke:rgb(0%,0%,0%);stroke-opacity:1;stroke-dasharray:1,4;stroke-miterlimit:10;" d="M 12.421875 218 L 30.421875 218 L 30.421875 236 L 12.421875 236 Z M 12.421875 218 " transform="matrix(1.25,0,0,1.25,-13.75,-168.75)"/>
<path style=" stroke:none;fill-rule:nonzero;fill:rgb(0%,0%,0%);fill-opacity:1;" d="M 10.367188 114.160156 C 10.367188 113.210938 10.464844 112.441406 10.660156 111.855469 C 10.855469 111.269531 11.140625 110.820312 11.519531 110.507812 C 11.910156 110.195312 12.398438 110.039062 12.984375 110.039062 C 13.425781 110.039062 13.8125 110.132812 14.136719 110.3125 C 14.460938 110.484375 14.730469 110.734375 14.9375 111.054688 C 15.144531 111.382812 15.308594 111.777344 15.425781 112.246094 C 15.554688 112.714844 15.621094 113.355469 15.621094 114.160156 C 15.621094 115.097656 15.523438 115.859375 15.328125 116.445312 C 15.132812 117.023438 14.839844 117.46875 14.449219 117.792969 C 14.070312 118.105469 13.582031 118.261719 12.984375 118.261719 C 12.214844 118.261719 11.609375 117.984375 11.167969 117.421875 C 10.632812 116.757812 10.367188 115.671875 10.367188 114.160156 Z M 11.382812 114.160156 C 11.382812 115.476562 11.53125 116.359375 11.832031 116.796875 C 12.144531 117.226562 12.527344 117.441406 12.984375 117.441406 C 13.441406 117.441406 13.824219 117.226562 14.136719 116.796875 C 14.449219 116.359375 14.605469 115.476562 14.605469 114.160156 C 14.605469 112.832031 14.449219 111.953125 14.136719 111.523438 C 13.824219 111.085938 13.441406 110.859375 12.984375 110.859375 C 12.527344 110.859375 12.164062 111.050781 11.890625 111.425781 C 11.550781 111.921875 11.382812 112.832031 11.382812 114.160156 Z M 11.382812 114.160156 "/>
<path style="fill-rule:nonzero;fill:rgb(100%,100%,100%);fill-opacity:1;stroke-width:1;stroke-linecap:round;stroke-linejoin:round;stroke:rgb(0%,0%,0%);stroke-opacity:1;stroke-dasharray:1,4;stroke-miterlimit:10;" d="M 30.421875 164 L 48.421875 164 L 48.421875 182 L 30.421875 182 Z M 30.421875 164 " transform="matrix(1.25,0,0,1.25,-13.75,-168.75)"/>
<path style=" stroke:none;fill-rule:nonzero;fill:rgb(0%,0%,0%);fill-opacity:1;" d="M 32.867188 46.660156 C 32.867188 45.710938 32.964844 44.941406 33.160156 44.355469 C 33.355469 43.769531 33.640625 43.320312 34.019531 43.007812 C 34.410156 42.695312 34.898438 42.539062 35.484375 42.539062 C 35.925781 42.539062 36.3125 42.632812 36.636719 42.8125 C 36.960938 42.984375 37.230469 43.234375 37.4375 43.554688 C 37.644531 43.882812 37.808594 44.277344 37.925781 44.746094 C 38.054688 45.214844 38.121094 45.855469 38.121094 46.660156 C 38.121094 47.597656 38.023438 48.359375 37.828125 48.945312 C 37.632812 49.523438 37.339844 49.96875 36.949219 50.292969 C 36.570312 50.605469 36.082031 50.761719 35.484375 50.761719 C 34.714844 50.761719 34.109375 50.484375 33.667969 49.921875 C 33.132812 49.257812 32.867188 48.171875 32.867188 46.660156 Z M 33.882812 46.660156 C 33.882812 47.976562 34.03125 48.859375 34.332031 49.296875 C 34.644531 49.726562 35.027344 49.941406 35.484375 49.941406 C 35.941406 49.941406 36.324219 49.726562 36.636719 49.296875 C 36.949219 48.859375 37.105469 47.976562 37.105469 46.660156 C 37.105469 45.332031 36.949219 44.453125 36.636719 44.023438 C 36.324219 43.585938 35.941406 43.359375 35.484375 43.359375 C 35.027344 43.359375 34.664062 43.550781 34.390625 43.925781 C 34.050781 44.421875 33.882812 45.332031 33.882812 46.660156 Z M 33.882812 46.660156 "/>
<path style="fill-rule:nonzero;fill:rgb(100%,100%,100%);fill-opacity:1;stroke-width:1;stroke-linecap:round;stroke-linejoin:round;stroke:rgb(0%,0%,0%);stroke-opacity:1;stroke-miterlimit:10;" d="M 30.421875 200 L 48.421875 200 L 48.421875 218 L 30.421875 218 Z M 30.421875 200 " transform="matrix(1.25,0,0,1.25,-13.75,-168.75)"/>
<path style=" stroke:none;fill-rule:nonzero;fill:rgb(0%,0%,0%);fill-opacity:1;" d="M 32.867188 93.496094 L 33.863281 93.359375 C 33.980469 93.921875 34.167969 94.328125 34.429688 94.570312 C 34.703125 94.820312 35.042969 94.941406 35.445312 94.941406 C 35.902344 94.941406 36.285156 94.785156 36.597656 94.472656 C 36.921875 94.148438 37.085938 93.746094 37.085938 93.261719 C 37.085938 92.808594 36.9375 92.4375 36.636719 92.148438 C 36.351562 91.851562 35.980469 91.699219 35.523438 91.699219 C 35.328125 91.699219 35.09375 91.738281 34.820312 91.816406 L 34.9375 90.9375 C 35.003906 90.953125 35.054688 90.957031 35.09375 90.957031 C 35.511719 90.957031 35.886719 90.851562 36.226562 90.625 C 36.566406 90.40625 36.734375 90.070312 36.734375 89.609375 C 36.734375 89.25 36.609375 88.945312 36.363281 88.710938 C 36.117188 88.476562 35.796875 88.359375 35.40625 88.359375 C 35.027344 88.359375 34.710938 88.484375 34.449219 88.730469 C 34.203125 88.964844 34.039062 89.328125 33.960938 89.804688 L 32.964844 89.628906 C 33.09375 88.964844 33.367188 88.453125 33.785156 88.085938 C 34.214844 87.726562 34.75 87.539062 35.386719 87.539062 C 35.828125 87.539062 36.234375 87.636719 36.597656 87.832031 C 36.976562 88.015625 37.261719 88.273438 37.457031 88.59375 C 37.652344 88.921875 37.75 89.265625 37.75 89.628906 C 37.75 89.980469 37.652344 90.304688 37.457031 90.585938 C 37.273438 90.875 37 91.101562 36.636719 91.269531 C 37.117188 91.375 37.488281 91.601562 37.75 91.953125 C 38.011719 92.296875 38.140625 92.726562 38.140625 93.242188 C 38.140625 93.945312 37.878906 94.546875 37.359375 95.039062 C 36.851562 95.523438 36.207031 95.761719 35.425781 95.761719 C 34.722656 95.761719 34.136719 95.554688 33.667969 95.136719 C 33.199219 94.722656 32.933594 94.175781 32.867188 93.496094 Z M 32.867188 93.496094 "/>
<path style="fill-rule:nonzero;fill:rgb(100%,100%,100%);fill-opacity:1;stroke-width:1;stroke-linecap:round;stroke-linejoin:round;stroke:rgb(0%,0%,0%);stroke-opacity:1;stroke-dasharray:1,4;stroke-miterlimit:10;" d="M 12.421875 182 L 30.421875 182 L 30.421875 200 L 12.421875 200 Z M 12.421875 182 " transform="matrix(1.25,0,0,1.25,-13.75,-168.75)"/>
<path style=" stroke:none;fill-rule:nonzero;fill:rgb(0%,0%,0%);fill-opacity:1;" d="M 10.367188 69.160156 C 10.367188 68.210938 10.464844 67.441406 10.660156 66.855469 C 10.855469 66.269531 11.140625 65.820312 11.519531 65.507812 C 11.910156 65.195312 12.398438 65.039062 12.984375 65.039062 C 13.425781 65.039062 13.8125 65.132812 14.136719 65.3125 C 14.460938 65.484375 14.730469 65.734375 14.9375 66.054688 C 15.144531 66.382812 15.308594 66.777344 15.425781 67.246094 C 15.554688 67.714844 15.621094 68.355469 15.621094 69.160156 C 15.621094 70.097656 15.523438 70.859375 15.328125 71.445312 C 15.132812 72.023438 14.839844 72.46875 14.449219 72.792969 C 14.070312 73.105469 13.582031 73.261719 12.984375 73.261719 C 12.214844 73.261719 11.609375 72.984375 11.167969 72.421875 C 10.632812 71.757812 10.367188 70.671875 10.367188 69.160156 Z M 11.382812 69.160156 C 11.382812 70.476562 11.53125 71.359375 11.832031 71.796875 C 12.144531 72.226562 12.527344 72.441406 12.984375 72.441406 C 13.441406 72.441406 13.824219 72.226562 14.136719 71.796875 C 14.449219 71.359375 14.605469 70.476562 14.605469 69.160156 C 14.605469 67.832031 14.449219 66.953125 14.136719 66.523438 C 13.824219 66.085938 13.441406 65.859375 12.984375 65.859375 C 12.527344 65.859375 12.164062 66.050781 11.890625 66.425781 C 11.550781 66.921875 11.382812 67.832031 11.382812 69.160156 Z M 11.382812 69.160156 "/>
<path style="fill-rule:nonzero;fill:rgb(100%,100%,100%);fill-opacity:1;stroke-width:1;stroke-linecap:round;stroke-linejoin:round;stroke:rgb(0%,0%,0%);stroke-opacity:1;stroke-miterlimit:10;" d="M 66.421875 218 L 84.421875 218 L 84.421875 236 L 66.421875 236 Z M 66.421875 218 " transform="matrix(1.25,0,0,1.25,-13.75,-168.75)"/>
<path style=" stroke:none;fill-rule:nonzero;fill:rgb(0%,0%,0%);fill-opacity:1;" d="M 79.390625 113.75 C 78.972656 113.609375 78.667969 113.398438 78.472656 113.125 C 78.277344 112.84375 78.179688 112.5 78.179688 112.109375 C 78.179688 111.523438 78.386719 111.035156 78.804688 110.644531 C 79.234375 110.242188 79.792969 110.039062 80.484375 110.039062 C 81.1875 110.039062 81.753906 110.25 82.183594 110.664062 C 82.613281 111.070312 82.828125 111.5625 82.828125 112.148438 C 82.828125 112.515625 82.730469 112.84375 82.535156 113.125 C 82.339844 113.398438 82.039062 113.609375 81.636719 113.75 C 82.132812 113.921875 82.507812 114.1875 82.769531 114.550781 C 83.03125 114.902344 83.160156 115.328125 83.160156 115.820312 C 83.160156 116.515625 82.914062 117.089844 82.417969 117.558594 C 81.9375 118.027344 81.296875 118.261719 80.503906 118.261719 C 79.710938 118.261719 79.066406 118.027344 78.570312 117.558594 C 78.089844 117.089844 77.847656 116.503906 77.847656 115.800781 C 77.847656 115.28125 77.976562 114.84375 78.238281 114.492188 C 78.511719 114.132812 78.894531 113.882812 79.390625 113.75 Z M 79.195312 112.089844 C 79.195312 112.46875 79.3125 112.78125 79.546875 113.027344 C 79.792969 113.261719 80.113281 113.378906 80.503906 113.378906 C 80.894531 113.378906 81.207031 113.261719 81.441406 113.027344 C 81.6875 112.78125 81.8125 112.480469 81.8125 112.128906 C 81.8125 111.777344 81.6875 111.480469 81.441406 111.230469 C 81.195312 110.984375 80.882812 110.859375 80.503906 110.859375 C 80.125 110.859375 79.8125 110.984375 79.566406 111.230469 C 79.320312 111.464844 79.195312 111.753906 79.195312 112.089844 Z M 78.863281 115.800781 C 78.863281 116.089844 78.929688 116.363281 79.058594 116.621094 C 79.203125 116.882812 79.402344 117.085938 79.664062 117.226562 C 79.925781 117.375 80.210938 117.441406 80.523438 117.441406 C 80.992188 117.441406 81.375 117.296875 81.675781 116.992188 C 81.988281 116.695312 82.144531 116.308594 82.144531 115.839844 C 82.144531 115.359375 81.988281 114.960938 81.675781 114.648438 C 81.363281 114.335938 80.964844 114.179688 80.484375 114.179688 C 80.015625 114.179688 79.625 114.335938 79.3125 114.648438 C 79.011719 114.960938 78.863281 115.347656 78.863281 115.800781 Z M 78.863281 115.800781 "/>
<path style="fill-rule:nonzero;fill:rgb(100%,100%,100%);fill-opacity:1;stroke-width:1;stroke-linecap:round;stroke-linejoin:round;stroke:rgb(0%,0%,0%);stroke-opacity:1;stroke-miterlimit:10;" d="M 66.421875 200 L 84.421875 200 L 84.421875 218 L 66.421875 218 Z M 66.421875 200 " transform="matrix(1.25,0,0,1.25,-13.75,-168.75)"/>
<path style=" stroke:none;fill-rule:nonzero;fill:rgb(0%,0%,0%);fill-opacity:1;" d="M 77.867188 93.515625 L 78.902344 93.417969 C 78.980469 93.925781 79.15625 94.3125 79.429688 94.570312 C 79.714844 94.820312 80.054688 94.941406 80.445312 94.941406 C 80.925781 94.941406 81.332031 94.765625 81.65625 94.414062 C 81.996094 94.054688 82.164062 93.574219 82.164062 92.988281 C 82.164062 92.417969 82 91.96875 81.675781 91.640625 C 81.363281 91.320312 80.953125 91.152344 80.445312 91.152344 C 80.121094 91.152344 79.828125 91.230469 79.566406 91.386719 C 79.320312 91.53125 79.117188 91.714844 78.960938 91.933594 L 78.042969 91.816406 L 78.824219 87.675781 L 82.828125 87.675781 L 82.828125 88.632812 L 79.605469 88.632812 L 79.175781 90.78125 C 79.65625 90.460938 80.164062 90.292969 80.699219 90.292969 C 81.402344 90.292969 81.996094 90.539062 82.476562 91.015625 C 82.957031 91.5 83.199219 92.125 83.199219 92.890625 C 83.199219 93.625 82.992188 94.253906 82.574219 94.785156 C 82.054688 95.4375 81.34375 95.761719 80.445312 95.761719 C 79.714844 95.761719 79.117188 95.5625 78.648438 95.15625 C 78.191406 94.742188 77.933594 94.195312 77.867188 93.515625 Z M 77.867188 93.515625 "/>
<path style="fill-rule:nonzero;fill:rgb(100%,100%,100%);fill-opacity:1;stroke-width:1;stroke-linecap:round;stroke-linejoin:round;stroke:rgb(0%,0%,0%);stroke-opacity:1;stroke-dasharray:1,4;stroke-miterlimit:10;" d="M 12.421875 164 L 30.421875 164 L 30.421875 182 L 12.421875 182 Z M 12.421875 164 " transform="matrix(1.25,0,0,1.25,-13.75,-168.75)"/>
<path style=" stroke:none;fill-rule:nonzero;fill:rgb(0%,0%,0%);fill-opacity:1;" d="M 10.367188 46.660156 C 10.367188 45.710938 10.464844 44.941406 10.660156 44.355469 C 10.855469 43.769531 11.140625 43.320312 11.519531 43.007812 C 11.910156 42.695312 12.398438 42.539062 12.984375 42.539062 C 13.425781 42.539062 13.8125 42.632812 14.136719 42.8125 C 14.460938 42.984375 14.730469 43.234375 14.9375 43.554688 C 15.144531 43.882812 15.308594 44.277344 15.425781 44.746094 C 15.554688 45.214844 15.621094 45.855469 15.621094 46.660156 C 15.621094 47.597656 15.523438 48.359375 15.328125 48.945312 C 15.132812 49.523438 14.839844 49.96875 14.449219 50.292969 C 14.070312 50.605469 13.582031 50.761719 12.984375 50.761719 C 12.214844 50.761719 11.609375 50.484375 11.167969 49.921875 C 10.632812 49.257812 10.367188 48.171875 10.367188 46.660156 Z M 11.382812 46.660156 C 11.382812 47.976562 11.53125 48.859375 11.832031 49.296875 C 12.144531 49.726562 12.527344 49.941406 12.984375 49.941406 C 13.441406 49.941406 13.824219 49.726562 14.136719 49.296875 C 14.449219 48.859375 14.605469 47.976562 14.605469 46.660156 C 14.605469 45.332031 14.449219 44.453125 14.136719 44.023438 C 13.824219 43.585938 13.441406 43.359375 12.984375 43.359375 C 12.527344 43.359375 12.164062 43.550781 11.890625 43.925781 C 11.550781 44.421875 11.382812 45.332031 11.382812 46.660156 Z M 11.382812 46.660156 "/>
<path style="fill-rule:nonzero;fill:rgb(69.803922%,85.098039%,100%);fill-opacity:1;stroke-width:1;stroke-linecap:round;stroke-linejoin:round;stroke:rgb(0%,0%,0%);stroke-opacity:1;stroke-miterlimit:10;" d="M 66.421875 182 L 84.421875 182 L 84.421875 200 L 66.421875 200 Z M 66.421875 182 " transform="matrix(1.25,0,0,1.25,-13.75,-168.75)"/>
<path style=" stroke:none;fill-rule:nonzero;fill:rgb(0%,0%,0%);fill-opacity:1;" d="M 83.0625 72.167969 L 83.0625 73.125 L 77.730469 73.125 C 77.730469 72.890625 77.769531 72.664062 77.847656 72.441406 C 77.992188 72.078125 78.210938 71.71875 78.511719 71.367188 C 78.8125 71.015625 79.242188 70.617188 79.800781 70.15625 C 80.671875 69.429688 81.257812 68.859375 81.558594 68.4375 C 81.871094 68.023438 82.027344 67.625 82.027344 67.246094 C 82.027344 66.855469 81.882812 66.53125 81.597656 66.269531 C 81.324219 65.996094 80.964844 65.859375 80.523438 65.859375 C 80.042969 65.859375 79.65625 66.007812 79.371094 66.289062 C 79.085938 66.578125 78.941406 66.972656 78.941406 67.480469 L 77.925781 67.363281 C 77.992188 66.609375 78.25 66.035156 78.707031 65.644531 C 79.164062 65.242188 79.773438 65.039062 80.542969 65.039062 C 81.3125 65.039062 81.917969 65.253906 82.359375 65.683594 C 82.816406 66.113281 83.042969 66.640625 83.042969 67.265625 C 83.042969 67.59375 82.976562 67.910156 82.847656 68.222656 C 82.71875 68.535156 82.496094 68.867188 82.183594 69.21875 C 81.882812 69.5625 81.382812 70.03125 80.679688 70.625 C 80.082031 71.125 79.695312 71.460938 79.527344 71.640625 C 79.359375 71.828125 79.222656 72 79.117188 72.167969 Z M 83.0625 72.167969 "/>
<path style="fill-rule:nonzero;fill:rgb(69.803922%,85.098039%,100%);fill-opacity:1;stroke-width:1;stroke-linecap:round;stroke-linejoin:round;stroke:rgb(0%,0%,0%);stroke-opacity:1;stroke-dasharray:1,4;stroke-miterlimit:10;" d="M 66.421875 164 L 84.421875 164 L 84.421875 182 L 66.421875 182 Z M 66.421875 164 " transform="matrix(1.25,0,0,1.25,-13.75,-168.75)"/>
<path style=" stroke:none;fill-rule:nonzero;fill:rgb(0%,0%,0%);fill-opacity:1;" d="M 77.867188 46.660156 C 77.867188 45.710938 77.964844 44.941406 78.160156 44.355469 C 78.355469 43.769531 78.640625 43.320312 79.019531 43.007812 C 79.410156 42.695312 79.898438 42.539062 80.484375 42.539062 C 80.925781 42.539062 81.3125 42.632812 81.636719 42.8125 C 81.960938 42.984375 82.230469 43.234375 82.4375 43.554688 C 82.644531 43.882812 82.808594 44.277344 82.925781 44.746094 C 83.054688 45.214844 83.121094 45.855469 83.121094 46.660156 C 83.121094 47.597656 83.023438 48.359375 82.828125 48.945312 C 82.632812 49.523438 82.339844 49.96875 81.949219 50.292969 C 81.570312 50.605469 81.082031 50.761719 80.484375 50.761719 C 79.714844 50.761719 79.109375 50.484375 78.667969 49.921875 C 78.132812 49.257812 77.867188 48.171875 77.867188 46.660156 Z M 78.882812 46.660156 C 78.882812 47.976562 79.03125 48.859375 79.332031 49.296875 C 79.644531 49.726562 80.027344 49.941406 80.484375 49.941406 C 80.941406 49.941406 81.324219 49.726562 81.636719 49.296875 C 81.949219 48.859375 82.105469 47.976562 82.105469 46.660156 C 82.105469 45.332031 81.949219 44.453125 81.636719 44.023438 C 81.324219 43.585938 80.941406 43.359375 80.484375 43.359375 C 80.027344 43.359375 79.664062 43.550781 79.390625 43.925781 C 79.050781 44.421875 78.882812 45.332031 78.882812 46.660156 Z M 78.882812 46.660156 "/>
<path style="fill-rule:nonzero;fill:rgb(100%,100%,100%);fill-opacity:1;stroke-width:1;stroke-linecap:round;stroke-linejoin:round;stroke:rgb(0%,0%,0%);stroke-opacity:1;stroke-miterlimit:10;" d="M 48.421875 218 L 66.421875 218 L 66.421875 236 L 48.421875 236 Z M 48.421875 218 " transform="matrix(1.25,0,0,1.25,-13.75,-168.75)"/>
<path style=" stroke:none;fill-rule:nonzero;fill:rgb(0%,0%,0%);fill-opacity:1;" d="M 55.425781 111.132812 L 55.425781 110.175781 L 60.640625 110.175781 L 60.640625 110.9375 C 60.132812 111.484375 59.625 112.21875 59.117188 113.125 C 58.609375 114.023438 58.21875 114.957031 57.945312 115.917969 C 57.75 116.582031 57.625 117.320312 57.574219 118.125 L 56.558594 118.125 C 56.570312 117.492188 56.695312 116.726562 56.929688 115.839844 C 57.164062 114.941406 57.503906 114.078125 57.945312 113.242188 C 58.402344 112.414062 58.875 111.710938 59.371094 111.132812 Z M 55.425781 111.132812 "/>
<path style="fill-rule:nonzero;fill:rgb(100%,100%,100%);fill-opacity:1;stroke-width:1;stroke-linecap:round;stroke-linejoin:round;stroke:rgb(0%,0%,0%);stroke-opacity:1;stroke-miterlimit:10;" d="M 48.421875 200 L 66.421875 200 L 66.421875 218 L 48.421875 218 Z M 48.421875 200 " transform="matrix(1.25,0,0,1.25,-13.75,-168.75)"/>
<path style=" stroke:none;fill-rule:nonzero;fill:rgb(0%,0%,0%);fill-opacity:1;" d="M 58.53125 95.625 L 58.53125 93.691406 L 55.035156 93.691406 L 55.035156 92.792969 L 58.707031 87.578125 L 59.527344 87.578125 L 59.527344 92.792969 L 60.621094 92.792969 L 60.621094 93.691406 L 59.527344 93.691406 L 59.527344 95.625 Z M 58.53125 92.792969 L 58.53125 89.160156 L 56.011719 92.792969 Z M 58.53125 92.792969 "/>
<path style="fill-rule:nonzero;fill:rgb(69.803922%,85.098039%,100%);fill-opacity:1;stroke-width:1;stroke-linecap:round;stroke-linejoin:round;stroke:rgb(0%,0%,0%);stroke-opacity:1;stroke-dasharray:1,4;stroke-miterlimit:10;" d="M 48.421875 164 L 66.421875 164 L 66.421875 182 L 48.421875 182 Z M 48.421875 164 " transform="matrix(1.25,0,0,1.25,-13.75,-168.75)"/>
<path style=" stroke:none;fill-rule:nonzero;fill:rgb(0%,0%,0%);fill-opacity:1;" d="M 55.367188 46.660156 C 55.367188 45.710938 55.464844 44.941406 55.660156 44.355469 C 55.855469 43.769531 56.140625 43.320312 56.519531 43.007812 C 56.910156 42.695312 57.398438 42.539062 57.984375 42.539062 C 58.425781 42.539062 58.8125 42.632812 59.136719 42.8125 C 59.460938 42.984375 59.730469 43.234375 59.9375 43.554688 C 60.144531 43.882812 60.308594 44.277344 60.425781 44.746094 C 60.554688 45.214844 60.621094 45.855469 60.621094 46.660156 C 60.621094 47.597656 60.523438 48.359375 60.328125 48.945312 C 60.132812 49.523438 59.839844 49.96875 59.449219 50.292969 C 59.070312 50.605469 58.582031 50.761719 57.984375 50.761719 C 57.214844 50.761719 56.609375 50.484375 56.167969 49.921875 C 55.632812 49.257812 55.367188 48.171875 55.367188 46.660156 Z M 56.382812 46.660156 C 56.382812 47.976562 56.53125 48.859375 56.832031 49.296875 C 57.144531 49.726562 57.527344 49.941406 57.984375 49.941406 C 58.441406 49.941406 58.824219 49.726562 59.136719 49.296875 C 59.449219 48.859375 59.605469 47.976562 59.605469 46.660156 C 59.605469 45.332031 59.449219 44.453125 59.136719 44.023438 C 58.824219 43.585938 58.441406 43.359375 57.984375 43.359375 C 57.527344 43.359375 57.164062 43.550781 56.890625 43.925781 C 56.550781 44.421875 56.382812 45.332031 56.382812 46.660156 Z M 56.382812 46.660156 "/>
<path style="fill-rule:nonzero;fill:rgb(69.803922%,85.098039%,100%);fill-opacity:1;stroke-width:1;stroke-linecap:round;stroke-linejoin:round;stroke:rgb(0%,0%,0%);stroke-opacity:1;stroke-miterlimit:10;" d="M 30.421875 218 L 48.421875 218 L 48.421875 236 L 30.421875 236 Z M 30.421875 218 " transform="matrix(1.25,0,0,1.25,-13.75,-168.75)"/>
<path style=" stroke:none;fill-rule:nonzero;fill:rgb(0%,0%,0%);fill-opacity:1;" d="M 38.003906 112.050781 L 37.007812 112.128906 C 36.929688 111.738281 36.804688 111.453125 36.636719 111.269531 C 36.375 110.996094 36.050781 110.859375 35.660156 110.859375 C 35.335938 110.859375 35.054688 110.945312 34.820312 111.113281 C 34.507812 111.347656 34.261719 111.679688 34.078125 112.109375 C 33.910156 112.539062 33.816406 113.160156 33.804688 113.964844 C 34.039062 113.613281 34.324219 113.355469 34.664062 113.183594 C 35.015625 113.003906 35.378906 112.910156 35.757812 112.910156 C 36.421875 112.910156 36.980469 113.15625 37.4375 113.632812 C 37.90625 114.117188 38.140625 114.742188 38.140625 115.507812 C 38.140625 116.015625 38.03125 116.492188 37.808594 116.933594 C 37.585938 117.363281 37.289062 117.695312 36.910156 117.929688 C 36.53125 118.148438 36.101562 118.261719 35.621094 118.261719 C 34.800781 118.261719 34.128906 117.964844 33.609375 117.363281 C 33.089844 116.753906 32.828125 115.75 32.828125 114.355469 C 32.828125 112.808594 33.113281 111.675781 33.6875 110.957031 C 34.183594 110.347656 34.859375 110.039062 35.71875 110.039062 C 36.34375 110.039062 36.859375 110.226562 37.261719 110.585938 C 37.664062 110.9375 37.914062 111.425781 38.003906 112.050781 Z M 33.960938 115.507812 C 33.960938 115.859375 34.03125 116.191406 34.175781 116.503906 C 34.320312 116.804688 34.519531 117.039062 34.78125 117.207031 C 35.042969 117.363281 35.316406 117.441406 35.601562 117.441406 C 36.019531 117.441406 36.375 117.28125 36.675781 116.953125 C 36.976562 116.617188 37.125 116.152344 37.125 115.566406 C 37.125 115.007812 36.976562 114.570312 36.675781 114.257812 C 36.390625 113.9375 36.019531 113.769531 35.5625 113.769531 C 35.121094 113.769531 34.742188 113.9375 34.429688 114.257812 C 34.117188 114.570312 33.960938 114.992188 33.960938 115.507812 Z M 33.960938 115.507812 "/>
<path style="fill-rule:nonzero;fill:rgb(69.803922%,85.098039%,100%);fill-opacity:1;stroke-width:1;stroke-linecap:round;stroke-linejoin:round;stroke:rgb(0%,0%,0%);stroke-opacity:1;stroke-miterlimit:10;" d="M 140.38125 209 L 158.38125 209 L 158.38125 227 L 140.38125 227 Z M 140.38125 209 " transform="matrix(1.25,0,0,1.25,-13.75,-168.75)"/>
<path style=" stroke:none;fill-rule:nonzero;fill:rgb(0%,0%,0%);fill-opacity:1;" d="M 175.511719 105.917969 L 175.511719 106.875 L 170.179688 106.875 C 170.179688 106.640625 170.21875 106.414062 170.296875 106.191406 C 170.441406 105.828125 170.660156 105.46875 170.960938 105.117188 C 171.261719 104.765625 171.691406 104.367188 172.25 103.90625 C 173.121094 103.179688 173.707031 102.609375 174.007812 102.1875 C 174.320312 101.773438 174.476562 101.375 174.476562 100.996094 C 174.476562 100.605469 174.332031 100.28125 174.046875 100.019531 C 173.773438 99.746094 173.414062 99.609375 172.972656 99.609375 C 172.492188 99.609375 172.105469 99.757812 171.820312 100.039062 C 171.535156 100.328125 171.390625 100.722656 171.390625 101.230469 L 170.375 101.113281 C 170.441406 100.359375 170.699219 99.785156 171.15625 99.394531 C 171.613281 98.992188 172.222656 98.789062 172.992188 98.789062 C 173.761719 98.789062 174.367188 99.003906 174.808594 99.433594 C 175.265625 99.863281 175.492188 100.390625 175.492188 101.015625 C 175.492188 101.34375 175.425781 101.660156 175.296875 101.972656 C 175.167969 102.285156 174.945312 102.617188 174.632812 102.96875 C 174.332031 103.3125 173.832031 103.78125 173.128906 104.375 C 172.53125 104.875 172.144531 105.210938 171.976562 105.390625 C 171.808594 105.578125 171.671875 105.75 171.566406 105.917969 Z M 175.511719 105.917969 "/>
<path style="fill-rule:nonzero;fill:rgb(69.803922%,85.098039%,100%);fill-opacity:1;stroke-width:1;stroke-linecap:round;stroke-linejoin:round;stroke:rgb(0%,0%,0%);stroke-opacity:1;stroke-miterlimit:10;" d="M 158.38125 209 L 176.38125 209 L 176.38125 227 L 158.38125 227 Z M 158.38125 209 " transform="matrix(1.25,0,0,1.25,-13.75,-168.75)"/>
<path style=" stroke:none;fill-rule:nonzero;fill:rgb(0%,0%,0%);fill-opacity:1;" d="M 192.816406 104.746094 L 193.8125 104.609375 C 193.929688 105.171875 194.117188 105.578125 194.378906 105.820312 C 194.652344 106.070312 194.992188 106.191406 195.394531 106.191406 C 195.851562 106.191406 196.234375 106.035156 196.546875 105.722656 C 196.871094 105.398438 197.035156 104.996094 197.035156 104.511719 C 197.035156 104.058594 196.886719 103.6875 196.585938 103.398438 C 196.300781 103.101562 195.929688 102.949219 195.472656 102.949219 C 195.277344 102.949219 195.042969 102.988281 194.769531 103.066406 L 194.886719 102.1875 C 194.953125 102.203125 195.003906 102.207031 195.042969 102.207031 C 195.460938 102.207031 195.835938 102.101562 196.175781 101.875 C 196.515625 101.65625 196.683594 101.320312 196.683594 100.859375 C 196.683594 100.5 196.558594 100.195312 196.3125 99.960938 C 196.066406 99.726562 195.746094 99.609375 195.355469 99.609375 C 194.976562 99.609375 194.660156 99.734375 194.398438 99.980469 C 194.152344 100.214844 193.988281 100.578125 193.910156 101.054688 L 192.914062 100.878906 C 193.042969 100.214844 193.316406 99.703125 193.734375 99.335938 C 194.164062 98.976562 194.699219 98.789062 195.335938 98.789062 C 195.777344 98.789062 196.183594 98.886719 196.546875 99.082031 C 196.925781 99.265625 197.210938 99.523438 197.40625 99.84375 C 197.601562 100.171875 197.699219 100.515625 197.699219 100.878906 C 197.699219 101.230469 197.601562 101.554688 197.40625 101.835938 C 197.222656 102.125 196.949219 102.351562 196.585938 102.519531 C 197.066406 102.625 197.4375 102.851562 197.699219 103.203125 C 197.960938 103.546875 198.089844 103.976562 198.089844 104.492188 C 198.089844 105.195312 197.828125 105.796875 197.308594 106.289062 C 196.800781 106.773438 196.15625 107.011719 195.375 107.011719 C 194.671875 107.011719 194.085938 106.804688 193.617188 106.386719 C 193.148438 105.972656 192.882812 105.425781 192.816406 104.746094 Z M 192.816406 104.746094 "/>
<path style="fill-rule:nonzero;fill:rgb(69.803922%,85.098039%,100%);fill-opacity:1;stroke-width:1;stroke-linecap:round;stroke-linejoin:round;stroke:rgb(0%,0%,0%);stroke-opacity:1;stroke-miterlimit:10;" d="M 158.38125 191 L 176.38125 191 L 176.38125 209 L 158.38125 209 Z M 158.38125 191 " transform="matrix(1.25,0,0,1.25,-13.75,-168.75)"/>
<path style=" stroke:none;fill-rule:nonzero;fill:rgb(0%,0%,0%);fill-opacity:1;" d="M 196.546875 84.375 L 195.550781 84.375 L 195.550781 78.066406 C 195.316406 78.300781 195.003906 78.535156 194.613281 78.769531 C 194.222656 78.992188 193.878906 79.15625 193.578125 79.257812 L 193.578125 78.300781 C 194.125 78.054688 194.605469 77.75 195.023438 77.382812 C 195.441406 77.007812 195.734375 76.640625 195.902344 76.289062 L 196.546875 76.289062 Z M 196.546875 84.375 "/>
<path style="fill-rule:nonzero;fill:rgb(69.803922%,85.098039%,100%);fill-opacity:1;stroke-width:1;stroke-linecap:round;stroke-linejoin:round;stroke:rgb(0%,0%,0%);stroke-opacity:1;stroke-miterlimit:10;" d="M 140.38125 191 L 158.38125 191 L 158.38125 209 L 140.38125 209 Z M 140.38125 191 " transform="matrix(1.25,0,0,1.25,-13.75,-168.75)"/>
<path style=" stroke:none;fill-rule:nonzero;fill:rgb(0%,0%,0%);fill-opacity:1;" d="M 170.316406 80.410156 C 170.316406 79.460938 170.414062 78.691406 170.609375 78.105469 C 170.804688 77.519531 171.089844 77.070312 171.46875 76.757812 C 171.859375 76.445312 172.347656 76.289062 172.933594 76.289062 C 173.375 76.289062 173.761719 76.382812 174.085938 76.5625 C 174.410156 76.734375 174.679688 76.984375 174.886719 77.304688 C 175.09375 77.632812 175.257812 78.027344 175.375 78.496094 C 175.503906 78.964844 175.570312 79.605469 175.570312 80.410156 C 175.570312 81.347656 175.472656 82.109375 175.277344 82.695312 C 175.082031 83.273438 174.789062 83.71875 174.398438 84.042969 C 174.019531 84.355469 173.53125 84.511719 172.933594 84.511719 C 172.164062 84.511719 171.558594 84.234375 171.117188 83.671875 C 170.582031 83.007812 170.316406 81.921875 170.316406 80.410156 Z M 171.332031 80.410156 C 171.332031 81.726562 171.480469 82.609375 171.78125 83.046875 C 172.09375 83.476562 172.476562 83.691406 172.933594 83.691406 C 173.390625 83.691406 173.773438 83.476562 174.085938 83.046875 C 174.398438 82.609375 174.554688 81.726562 174.554688 80.410156 C 174.554688 79.082031 174.398438 78.203125 174.085938 77.773438 C 173.773438 77.335938 173.390625 77.109375 172.933594 77.109375 C 172.476562 77.109375 172.113281 77.300781 171.839844 77.675781 C 171.5 78.171875 171.332031 79.082031 171.332031 80.410156 Z M 171.332031 80.410156 "/>
<path style="fill-rule:nonzero;fill:rgb(69.803922%,85.098039%,100%);fill-opacity:1;stroke-width:1;stroke-linecap:round;stroke-linejoin:round;stroke:rgb(0%,0%,0%);stroke-opacity:1;stroke-miterlimit:10;" d="M 222.925 209 L 240.925 209 L 240.925 227 L 222.925 227 Z M 222.925 209 " transform="matrix(1.25,0,0,1.25,-13.75,-168.75)"/>
<path style=" stroke:none;fill-rule:nonzero;fill:rgb(0%,0%,0%);fill-opacity:1;" d="M 278.636719 100.800781 L 277.640625 100.878906 C 277.5625 100.488281 277.433594 100.203125 277.269531 100.019531 C 277.003906 99.746094 276.683594 99.609375 276.292969 99.609375 C 275.964844 99.609375 275.6875 99.695312 275.453125 99.863281 C 275.140625 100.097656 274.890625 100.429688 274.710938 100.859375 C 274.539062 101.289062 274.445312 101.910156 274.4375 102.714844 C 274.671875 102.363281 274.953125 102.105469 275.296875 101.933594 C 275.648438 101.753906 276.007812 101.660156 276.390625 101.660156 C 277.054688 101.660156 277.609375 101.90625 278.070312 102.382812 C 278.539062 102.867188 278.773438 103.492188 278.773438 104.257812 C 278.773438 104.765625 278.660156 105.242188 278.441406 105.683594 C 278.214844 106.113281 277.917969 106.445312 277.542969 106.679688 C 277.160156 106.898438 276.730469 107.011719 276.253906 107.011719 C 275.433594 107.011719 274.757812 106.714844 274.242188 106.113281 C 273.71875 105.503906 273.460938 104.5 273.460938 103.105469 C 273.460938 101.558594 273.742188 100.425781 274.320312 99.707031 C 274.8125 99.097656 275.492188 98.789062 276.351562 98.789062 C 276.976562 98.789062 277.488281 98.976562 277.894531 99.335938 C 278.292969 99.6875 278.542969 100.175781 278.636719 100.800781 Z M 274.59375 104.257812 C 274.59375 104.609375 274.660156 104.941406 274.808594 105.253906 C 274.949219 105.554688 275.148438 105.789062 275.414062 105.957031 C 275.671875 106.113281 275.945312 106.191406 276.234375 106.191406 C 276.648438 106.191406 277.003906 106.03125 277.308594 105.703125 C 277.605469 105.367188 277.757812 104.902344 277.757812 104.316406 C 277.757812 103.757812 277.605469 103.320312 277.308594 103.007812 C 277.019531 102.6875 276.648438 102.519531 276.195312 102.519531 C 275.75 102.519531 275.375 102.6875 275.0625 103.007812 C 274.75 103.320312 274.59375 103.742188 274.59375 104.257812 Z M 274.59375 104.257812 "/>
<path style="fill-rule:nonzero;fill:rgb(100%,100%,100%);fill-opacity:1;stroke-width:1;stroke-linecap:round;stroke-linejoin:round;stroke:rgb(0%,0%,0%);stroke-opacity:1;stroke-miterlimit:10;" d="M 240.925 209 L 258.925 209 L 258.925 227 L 240.925 227 Z M 240.925 209 " transform="matrix(1.25,0,0,1.25,-13.75,-168.75)"/>
<path style=" stroke:none;fill-rule:nonzero;fill:rgb(0%,0%,0%);fill-opacity:1;" d="M 297.523438 102.5 C 297.101562 102.359375 296.800781 102.148438 296.605469 101.875 C 296.410156 101.59375 296.3125 101.25 296.3125 100.859375 C 296.3125 100.273438 296.515625 99.785156 296.9375 99.394531 C 297.367188 98.992188 297.921875 98.789062 298.617188 98.789062 C 299.320312 98.789062 299.886719 99 300.316406 99.414062 C 300.746094 99.820312 300.960938 100.3125 300.960938 100.898438 C 300.960938 101.265625 300.863281 101.59375 300.667969 101.875 C 300.472656 102.148438 300.167969 102.359375 299.769531 102.5 C 300.261719 102.671875 300.636719 102.9375 300.902344 103.300781 C 301.160156 103.652344 301.292969 104.078125 301.292969 104.570312 C 301.292969 105.265625 301.042969 105.839844 300.550781 106.308594 C 300.066406 106.777344 299.425781 107.011719 298.636719 107.011719 C 297.839844 107.011719 297.195312 106.777344 296.703125 106.308594 C 296.21875 105.839844 295.980469 105.253906 295.980469 104.550781 C 295.980469 104.03125 296.105469 103.59375 296.371094 103.242188 C 296.644531 102.882812 297.023438 102.632812 297.523438 102.5 Z M 297.328125 100.839844 C 297.328125 101.21875 297.445312 101.53125 297.679688 101.777344 C 297.921875 102.011719 298.246094 102.128906 298.636719 102.128906 C 299.027344 102.128906 299.339844 102.011719 299.574219 101.777344 C 299.816406 101.53125 299.945312 101.230469 299.945312 100.878906 C 299.945312 100.527344 299.816406 100.230469 299.574219 99.980469 C 299.324219 99.734375 299.011719 99.609375 298.636719 99.609375 C 298.253906 99.609375 297.941406 99.734375 297.699219 99.980469 C 297.449219 100.214844 297.328125 100.503906 297.328125 100.839844 Z M 296.996094 104.550781 C 296.996094 104.839844 297.058594 105.113281 297.191406 105.371094 C 297.332031 105.632812 297.53125 105.835938 297.796875 105.976562 C 298.054688 106.125 298.34375 106.191406 298.65625 106.191406 C 299.125 106.191406 299.503906 106.046875 299.808594 105.742188 C 300.121094 105.445312 300.277344 105.058594 300.277344 104.589844 C 300.277344 104.109375 300.121094 103.710938 299.808594 103.398438 C 299.496094 103.085938 299.09375 102.929688 298.617188 102.929688 C 298.148438 102.929688 297.757812 103.085938 297.445312 103.398438 C 297.140625 103.710938 296.996094 104.097656 296.996094 104.550781 Z M 296.996094 104.550781 "/>
<path style="fill-rule:nonzero;fill:rgb(100%,100%,100%);fill-opacity:1;stroke-width:1;stroke-linecap:round;stroke-linejoin:round;stroke:rgb(0%,0%,0%);stroke-opacity:1;stroke-miterlimit:10;" d="M 222.925 191 L 240.925 191 L 240.925 209 L 222.925 209 Z M 222.925 191 " transform="matrix(1.25,0,0,1.25,-13.75,-168.75)"/>
<path style=" stroke:none;fill-rule:nonzero;fill:rgb(0%,0%,0%);fill-opacity:1;" d="M 273.5 80.410156 C 273.5 79.460938 273.597656 78.691406 273.792969 78.105469 C 273.988281 77.519531 274.269531 77.070312 274.652344 76.757812 C 275.042969 76.445312 275.53125 76.289062 276.117188 76.289062 C 276.554688 76.289062 276.941406 76.382812 277.269531 76.5625 C 277.589844 76.734375 277.859375 76.984375 278.070312 77.304688 C 278.273438 77.632812 278.441406 78.027344 278.558594 78.496094 C 278.683594 78.964844 278.753906 79.605469 278.753906 80.410156 C 278.753906 81.347656 278.65625 82.109375 278.460938 82.695312 C 278.265625 83.273438 277.972656 83.71875 277.582031 84.042969 C 277.199219 84.355469 276.710938 84.511719 276.117188 84.511719 C 275.34375 84.511719 274.738281 84.234375 274.300781 83.671875 C 273.761719 83.007812 273.5 81.921875 273.5 80.410156 Z M 274.515625 80.410156 C 274.515625 81.726562 274.660156 82.609375 274.964844 83.046875 C 275.277344 83.476562 275.65625 83.691406 276.117188 83.691406 C 276.570312 83.691406 276.957031 83.476562 277.269531 83.046875 C 277.582031 82.609375 277.738281 81.726562 277.738281 80.410156 C 277.738281 79.082031 277.582031 78.203125 277.269531 77.773438 C 276.957031 77.335938 276.570312 77.109375 276.117188 77.109375 C 275.65625 77.109375 275.296875 77.300781 275.023438 77.675781 C 274.679688 78.171875 274.515625 79.082031 274.515625 80.410156 Z M 274.515625 80.410156 "/>
<path style="fill-rule:nonzero;fill:rgb(69.803922%,85.098039%,100%);fill-opacity:1;stroke-width:1;stroke-linecap:round;stroke-linejoin:round;stroke:rgb(0%,0%,0%);stroke-opacity:1;stroke-miterlimit:10;" d="M 240.925 191 L 258.925 191 L 258.925 209 L 240.925 209 Z M 240.925 191 " transform="matrix(1.25,0,0,1.25,-13.75,-168.75)"/>
<path style=" stroke:none;fill-rule:nonzero;fill:rgb(0%,0%,0%);fill-opacity:1;" d="M 297.523438 80 C 297.101562 79.859375 296.800781 79.648438 296.605469 79.375 C 296.410156 79.09375 296.3125 78.75 296.3125 78.359375 C 296.3125 77.773438 296.515625 77.285156 296.9375 76.894531 C 297.367188 76.492188 297.921875 76.289062 298.617188 76.289062 C 299.320312 76.289062 299.886719 76.5 300.316406 76.914062 C 300.746094 77.320312 300.960938 77.8125 300.960938 78.398438 C 300.960938 78.765625 300.863281 79.09375 300.667969 79.375 C 300.472656 79.648438 300.167969 79.859375 299.769531 80 C 300.261719 80.171875 300.636719 80.4375 300.902344 80.800781 C 301.160156 81.152344 301.292969 81.578125 301.292969 82.070312 C 301.292969 82.765625 301.042969 83.339844 300.550781 83.808594 C 300.066406 84.277344 299.425781 84.511719 298.636719 84.511719 C 297.839844 84.511719 297.195312 84.277344 296.703125 83.808594 C 296.21875 83.339844 295.980469 82.753906 295.980469 82.050781 C 295.980469 81.53125 296.105469 81.09375 296.371094 80.742188 C 296.644531 80.382812 297.023438 80.132812 297.523438 80 Z M 297.328125 78.339844 C 297.328125 78.71875 297.445312 79.03125 297.679688 79.277344 C 297.921875 79.511719 298.246094 79.628906 298.636719 79.628906 C 299.027344 79.628906 299.339844 79.511719 299.574219 79.277344 C 299.816406 79.03125 299.945312 78.730469 299.945312 78.378906 C 299.945312 78.027344 299.816406 77.730469 299.574219 77.480469 C 299.324219 77.234375 299.011719 77.109375 298.636719 77.109375 C 298.253906 77.109375 297.941406 77.234375 297.699219 77.480469 C 297.449219 77.714844 297.328125 78.003906 297.328125 78.339844 Z M 296.996094 82.050781 C 296.996094 82.339844 297.058594 82.613281 297.191406 82.871094 C 297.332031 83.132812 297.53125 83.335938 297.796875 83.476562 C 298.054688 83.625 298.34375 83.691406 298.65625 83.691406 C 299.125 83.691406 299.503906 83.546875 299.808594 83.242188 C 300.121094 82.945312 300.277344 82.558594 300.277344 82.089844 C 300.277344 81.609375 300.121094 81.210938 299.808594 80.898438 C 299.496094 80.585938 299.09375 80.429688 298.617188 80.429688 C 298.148438 80.429688 297.757812 80.585938 297.445312 80.898438 C 297.140625 81.210938 296.996094 81.597656 296.996094 82.050781 Z M 296.996094 82.050781 "/>
<path style=" stroke:none;fill-rule:nonzero;fill:rgb(0%,0%,0%);fill-opacity:1;" d="M 133.328125 91.75 L 133.835938 90.1875 C 134.996094 90.59375 135.839844 90.945312 136.375 91.242188 C 136.230469 89.929688 136.160156 89.015625 136.160156 88.507812 L 137.742188 88.507812 C 137.714844 89.242188 137.632812 90.148438 137.488281 91.242188 C 138.242188 90.867188 139.109375 90.515625 140.085938 90.1875 L 140.59375 91.75 C 139.65625 92.054688 138.746094 92.253906 137.859375 92.355469 C 138.300781 92.746094 138.933594 93.441406 139.753906 94.425781 L 138.425781 95.363281 C 137.996094 94.792969 137.496094 94.007812 136.921875 93 C 136.375 94.046875 135.898438 94.832031 135.496094 95.363281 L 134.1875 94.425781 C 135.046875 93.386719 135.660156 92.699219 136.023438 92.355469 C 135.074219 92.175781 134.175781 91.976562 133.328125 91.75 Z M 133.328125 91.75 "/>
<path style=" stroke:none;fill-rule:nonzero;fill:rgb(0%,0%,0%);fill-opacity:1;" d="M 239.191406 89.902344 L 228.546875 89.902344 L 228.546875 88.066406 L 239.191406 88.066406 Z M 239.191406 94.785156 L 228.546875 94.785156 L 228.546875 92.949219 L 239.191406 92.949219 Z M 239.191406 94.785156 "/>
<path style=" stroke:none;fill-rule:nonzero;fill:rgb(0%,0%,0%);fill-opacity:1;" d="M 271.070312 12.324219 C 271.070312 10.996094 271.425781 9.957031 272.144531 9.199219 C 272.855469 8.433594 273.785156 8.046875 274.917969 8.046875 C 275.660156 8.046875 276.328125 8.234375 276.929688 8.59375 C 277.523438 8.945312 277.984375 9.445312 278.296875 10.078125 C 278.609375 10.71875 278.765625 11.4375 278.765625 12.226562 C 278.765625 13.046875 278.597656 13.785156 278.277344 14.433594 C 277.949219 15.074219 277.480469 15.5625 276.871094 15.898438 C 276.269531 16.226562 275.621094 16.386719 274.917969 16.386719 C 274.160156 16.386719 273.480469 16.207031 272.886719 15.839844 C 272.285156 15.476562 271.832031 14.976562 271.519531 14.335938 C 271.214844 13.703125 271.070312 13.027344 271.070312 12.324219 Z M 272.164062 12.34375 C 272.164062 13.320312 272.421875 14.09375 272.945312 14.648438 C 273.460938 15.195312 274.121094 15.46875 274.917969 15.46875 C 275.707031 15.46875 276.367188 15.191406 276.890625 14.628906 C 277.40625 14.070312 277.671875 13.273438 277.671875 12.226562 C 277.671875 11.578125 277.558594 11.011719 277.339844 10.527344 C 277.113281 10.035156 276.792969 9.648438 276.363281 9.375 C 275.933594 9.101562 275.453125 8.964844 274.9375 8.964844 C 274.179688 8.964844 273.53125 9.226562 272.984375 9.746094 C 272.4375 10.269531 272.164062 11.132812 272.164062 12.34375 Z M 272.164062 12.34375 "/>
<path style=" stroke:none;fill-rule:nonzero;fill:rgb(0%,0%,0%);fill-opacity:1;" d="M 283.84375 16.25 L 283.84375 15.390625 C 283.386719 16.054688 282.769531 16.386719 281.988281 16.386719 C 281.648438 16.386719 281.328125 16.320312 281.03125 16.191406 C 280.730469 16.050781 280.503906 15.878906 280.347656 15.683594 C 280.203125 15.488281 280.105469 15.25 280.054688 14.960938 C 280.015625 14.765625 279.996094 14.453125 279.996094 14.023438 L 279.996094 10.410156 L 280.972656 10.410156 L 280.972656 13.652344 C 280.972656 14.175781 280.996094 14.523438 281.050781 14.6875 C 281.101562 14.953125 281.226562 15.15625 281.421875 15.3125 C 281.628906 15.460938 281.882812 15.527344 282.183594 15.527344 C 282.480469 15.527344 282.761719 15.460938 283.023438 15.3125 C 283.28125 15.15625 283.464844 14.953125 283.570312 14.6875 C 283.671875 14.429688 283.726562 14.042969 283.726562 13.535156 L 283.726562 10.410156 L 284.722656 10.410156 L 284.722656 16.25 Z M 283.84375 16.25 "/>
<path style=" stroke:none;fill-rule:nonzero;fill:rgb(0%,0%,0%);fill-opacity:1;" d="M 288.4375 15.371094 L 288.574219 16.230469 C 288.285156 16.292969 288.035156 16.328125 287.832031 16.328125 C 287.464844 16.328125 287.1875 16.269531 286.992188 16.152344 C 286.796875 16.035156 286.648438 15.890625 286.5625 15.703125 C 286.484375 15.523438 286.445312 15.136719 286.445312 14.550781 L 286.445312 11.191406 L 285.722656 11.191406 L 285.722656 10.410156 L 286.445312 10.410156 L 286.445312 8.964844 L 287.441406 8.378906 L 287.441406 10.410156 L 288.4375 10.410156 L 288.4375 11.191406 L 287.441406 11.191406 L 287.441406 14.589844 C 287.441406 14.878906 287.449219 15.058594 287.480469 15.136719 C 287.519531 15.214844 287.578125 15.28125 287.65625 15.332031 C 287.734375 15.386719 287.839844 15.410156 287.988281 15.410156 C 288.105469 15.410156 288.25 15.398438 288.4375 15.371094 Z M 288.4375 15.371094 "/>
<path style=" stroke:none;fill-rule:nonzero;fill:rgb(0%,0%,0%);fill-opacity:1;" d="M 289.394531 18.476562 L 289.394531 10.410156 L 290.292969 10.410156 L 290.292969 11.171875 C 290.496094 10.875 290.730469 10.65625 290.996094 10.507812 C 291.269531 10.367188 291.601562 10.292969 291.992188 10.292969 C 292.484375 10.292969 292.917969 10.425781 293.300781 10.683594 C 293.675781 10.933594 293.964844 11.289062 294.160156 11.757812 C 294.355469 12.226562 294.453125 12.734375 294.453125 13.28125 C 294.453125 13.882812 294.339844 14.421875 294.121094 14.902344 C 293.910156 15.386719 293.601562 15.757812 293.203125 16.015625 C 292.796875 16.257812 292.367188 16.386719 291.914062 16.386719 C 291.585938 16.386719 291.292969 16.3125 291.035156 16.171875 C 290.769531 16.03125 290.554688 15.855469 290.390625 15.644531 L 290.390625 18.476562 Z M 290.292969 13.359375 C 290.292969 14.117188 290.4375 14.679688 290.742188 15.039062 C 291.054688 15.390625 291.425781 15.566406 291.855469 15.566406 C 292.285156 15.566406 292.65625 15.386719 292.96875 15.019531 C 293.289062 14.644531 293.457031 14.0625 293.457031 13.28125 C 293.457031 12.539062 293.300781 11.988281 292.988281 11.621094 C 292.683594 11.246094 292.324219 11.054688 291.894531 11.054688 C 291.472656 11.054688 291.101562 11.257812 290.78125 11.660156 C 290.453125 12.050781 290.292969 12.617188 290.292969 13.359375 Z M 290.292969 13.359375 "/>
<path style=" stroke:none;fill-rule:nonzero;fill:rgb(0%,0%,0%);fill-opacity:1;" d="M 299.476562 16.25 L 299.476562 15.390625 C 299.015625 16.054688 298.402344 16.386719 297.621094 16.386719 C 297.277344 16.386719 296.960938 16.320312 296.664062 16.191406 C 296.359375 16.050781 296.136719 15.878906 295.980469 15.683594 C 295.832031 15.488281 295.734375 15.25 295.6875 14.960938 C 295.648438 14.765625 295.628906 14.453125 295.628906 14.023438 L 295.628906 10.410156 L 296.605469 10.410156 L 296.605469 13.652344 C 296.605469 14.175781 296.628906 14.523438 296.683594 14.6875 C 296.730469 14.953125 296.859375 15.15625 297.054688 15.3125 C 297.257812 15.460938 297.511719 15.527344 297.816406 15.527344 C 298.113281 15.527344 298.390625 15.460938 298.65625 15.3125 C 298.914062 15.15625 299.09375 14.953125 299.203125 14.6875 C 299.304688 14.429688 299.359375 14.042969 299.359375 13.535156 L 299.359375 10.410156 L 300.355469 10.410156 L 300.355469 16.25 Z M 299.476562 16.25 "/>
<path style=" stroke:none;fill-rule:nonzero;fill:rgb(0%,0%,0%);fill-opacity:1;" d="M 304.066406 15.371094 L 304.203125 16.230469 C 303.914062 16.292969 303.667969 16.328125 303.460938 16.328125 C 303.09375 16.328125 302.816406 16.269531 302.621094 16.152344 C 302.425781 16.035156 302.28125 15.890625 302.191406 15.703125 C 302.113281 15.523438 302.074219 15.136719 302.074219 14.550781 L 302.074219 11.191406 L 301.351562 11.191406 L 301.351562 10.410156 L 302.074219 10.410156 L 302.074219 8.964844 L 303.070312 8.378906 L 303.070312 10.410156 L 304.066406 10.410156 L 304.066406 11.191406 L 303.070312 11.191406 L 303.070312 14.589844 C 303.070312 14.878906 303.082031 15.058594 303.109375 15.136719 C 303.148438 15.214844 303.207031 15.28125 303.285156 15.332031 C 303.363281 15.386719 303.472656 15.410156 303.617188 15.410156 C 303.734375 15.410156 303.882812 15.398438 304.066406 15.371094 Z M 304.066406 15.371094 "/>
<path style=" stroke:none;fill-rule:nonzero;fill:rgb(0%,0%,0%);fill-opacity:1;" d="M 167.6875 16.25 L 167.6875 8.203125 L 168.761719 8.203125 L 168.761719 12.1875 L 172.765625 8.203125 L 174.191406 8.203125 L 170.832031 11.464844 L 174.347656 16.25 L 172.941406 16.25 L 170.070312 12.167969 L 168.761719 13.457031 L 168.761719 16.25 Z M 167.6875 16.25 "/>
<path style=" stroke:none;fill-rule:nonzero;fill:rgb(0%,0%,0%);fill-opacity:1;" d="M 179.09375 14.375 L 180.128906 14.492188 C 179.960938 15.09375 179.652344 15.5625 179.210938 15.898438 C 178.78125 16.226562 178.226562 16.386719 177.550781 16.386719 C 176.703125 16.386719 176.027344 16.128906 175.519531 15.605469 C 175.023438 15.074219 174.777344 14.332031 174.777344 13.378906 C 174.777344 12.402344 175.03125 11.648438 175.539062 11.113281 C 176.046875 10.566406 176.703125 10.292969 177.511719 10.292969 C 178.292969 10.292969 178.925781 10.5625 179.40625 11.09375 C 179.902344 11.617188 180.148438 12.359375 180.148438 13.320312 C 180.148438 13.390625 180.148438 13.476562 180.148438 13.59375 L 175.792969 13.59375 C 175.832031 14.234375 176.015625 14.722656 176.339844 15.058594 C 176.664062 15.398438 177.074219 15.566406 177.570312 15.566406 C 177.933594 15.566406 178.242188 15.476562 178.488281 15.292969 C 178.75 15.097656 178.949219 14.796875 179.09375 14.375 Z M 175.851562 12.773438 L 179.113281 12.773438 C 179.074219 12.28125 178.949219 11.910156 178.742188 11.660156 C 178.429688 11.285156 178.019531 11.09375 177.511719 11.09375 C 177.054688 11.09375 176.671875 11.25 176.359375 11.5625 C 176.058594 11.867188 175.890625 12.265625 175.851562 12.773438 Z M 175.851562 12.773438 "/>
<path style=" stroke:none;fill-rule:nonzero;fill:rgb(0%,0%,0%);fill-opacity:1;" d="M 181.347656 16.25 L 181.347656 10.410156 L 182.246094 10.410156 L 182.246094 11.308594 C 182.46875 10.894531 182.675781 10.621094 182.871094 10.488281 C 183.066406 10.359375 183.28125 10.292969 183.515625 10.292969 C 183.839844 10.292969 184.179688 10.398438 184.53125 10.605469 L 184.179688 11.523438 C 183.945312 11.382812 183.703125 11.308594 183.457031 11.308594 C 183.25 11.308594 183.054688 11.375 182.871094 11.503906 C 182.703125 11.636719 182.578125 11.816406 182.5 12.050781 C 182.394531 12.402344 182.34375 12.789062 182.34375 13.203125 L 182.34375 16.25 Z M 181.347656 16.25 "/>
<path style=" stroke:none;fill-rule:nonzero;fill:rgb(0%,0%,0%);fill-opacity:1;" d="M 185.113281 16.25 L 185.113281 10.410156 L 186.011719 10.410156 L 186.011719 11.25 C 186.429688 10.617188 187.046875 10.292969 187.867188 10.292969 C 188.21875 10.292969 188.539062 10.359375 188.824219 10.488281 C 189.125 10.605469 189.34375 10.773438 189.488281 10.976562 C 189.632812 11.171875 189.734375 11.414062 189.800781 11.699219 C 189.839844 11.882812 189.859375 12.203125 189.859375 12.65625 L 189.859375 16.25 L 188.863281 16.25 L 188.863281 12.695312 C 188.863281 12.296875 188.824219 11.992188 188.746094 11.796875 C 188.667969 11.601562 188.53125 11.445312 188.335938 11.328125 C 188.140625 11.203125 187.914062 11.132812 187.652344 11.132812 C 187.234375 11.132812 186.871094 11.269531 186.558594 11.542969 C 186.257812 11.804688 186.109375 12.3125 186.109375 13.066406 L 186.109375 16.25 Z M 185.113281 16.25 "/>
<path style=" stroke:none;fill-rule:nonzero;fill:rgb(0%,0%,0%);fill-opacity:1;" d="M 195.355469 14.375 L 196.390625 14.492188 C 196.21875 15.09375 195.914062 15.5625 195.472656 15.898438 C 195.042969 16.226562 194.488281 16.386719 193.8125 16.386719 C 192.964844 16.386719 192.289062 16.128906 191.78125 15.605469 C 191.285156 15.074219 191.039062 14.332031 191.039062 13.378906 C 191.039062 12.402344 191.292969 11.648438 191.800781 11.113281 C 192.308594 10.566406 192.964844 10.292969 193.773438 10.292969 C 194.554688 10.292969 195.183594 10.5625 195.667969 11.09375 C 196.160156 11.617188 196.410156 12.359375 196.410156 13.320312 C 196.410156 13.390625 196.410156 13.476562 196.410156 13.59375 L 192.054688 13.59375 C 192.09375 14.234375 192.273438 14.722656 192.601562 15.058594 C 192.925781 15.398438 193.335938 15.566406 193.832031 15.566406 C 194.195312 15.566406 194.5 15.476562 194.75 15.292969 C 195.007812 15.097656 195.210938 14.796875 195.355469 14.375 Z M 192.113281 12.773438 L 195.375 12.773438 C 195.335938 12.28125 195.210938 11.910156 195.003906 11.660156 C 194.691406 11.285156 194.28125 11.09375 193.773438 11.09375 C 193.316406 11.09375 192.933594 11.25 192.621094 11.5625 C 192.320312 11.867188 192.152344 12.265625 192.113281 12.773438 Z M 192.113281 12.773438 "/>
<path style=" stroke:none;fill-rule:nonzero;fill:rgb(0%,0%,0%);fill-opacity:1;" d="M 197.609375 16.25 L 197.609375 8.203125 L 198.585938 8.203125 L 198.585938 16.25 Z M 197.609375 16.25 "/>
<path style=" stroke:none;fill-rule:nonzero;fill:rgb(0%,0%,0%);fill-opacity:1;" d="M 48.542969 16.25 L 48.542969 8.203125 L 49.597656 8.203125 L 49.597656 16.25 Z M 48.542969 16.25 "/>
<path style=" stroke:none;fill-rule:nonzero;fill:rgb(0%,0%,0%);fill-opacity:1;" d="M 51.355469 16.25 L 51.355469 10.410156 L 52.253906 10.410156 L 52.253906 11.25 C 52.671875 10.617188 53.289062 10.292969 54.109375 10.292969 C 54.460938 10.292969 54.78125 10.359375 55.066406 10.488281 C 55.367188 10.605469 55.585938 10.773438 55.730469 10.976562 C 55.875 11.171875 55.976562 11.414062 56.042969 11.699219 C 56.082031 11.882812 56.101562 12.203125 56.101562 12.65625 L 56.101562 16.25 L 55.105469 16.25 L 55.105469 12.695312 C 55.105469 12.296875 55.066406 11.992188 54.988281 11.796875 C 54.910156 11.601562 54.773438 11.445312 54.578125 11.328125 C 54.382812 11.203125 54.15625 11.132812 53.894531 11.132812 C 53.476562 11.132812 53.113281 11.269531 52.800781 11.542969 C 52.5 11.804688 52.351562 12.3125 52.351562 13.066406 L 52.351562 16.25 Z M 51.355469 16.25 "/>
<path style=" stroke:none;fill-rule:nonzero;fill:rgb(0%,0%,0%);fill-opacity:1;" d="M 57.609375 18.476562 L 57.609375 10.410156 L 58.507812 10.410156 L 58.507812 11.171875 C 58.714844 10.875 58.949219 10.65625 59.210938 10.507812 C 59.484375 10.367188 59.816406 10.292969 60.207031 10.292969 C 60.699219 10.292969 61.136719 10.425781 61.515625 10.683594 C 61.890625 10.933594 62.179688 11.289062 62.375 11.757812 C 62.570312 12.226562 62.667969 12.734375 62.667969 13.28125 C 62.667969 13.882812 62.554688 14.421875 62.335938 14.902344 C 62.125 15.386719 61.820312 15.757812 61.417969 16.015625 C 61.011719 16.257812 60.582031 16.386719 60.128906 16.386719 C 59.800781 16.386719 59.507812 16.3125 59.25 16.171875 C 58.988281 16.03125 58.773438 15.855469 58.605469 15.644531 L 58.605469 18.476562 Z M 58.507812 13.359375 C 58.507812 14.117188 58.65625 14.679688 58.957031 15.039062 C 59.269531 15.390625 59.640625 15.566406 60.070312 15.566406 C 60.5 15.566406 60.871094 15.386719 61.183594 15.019531 C 61.507812 14.644531 61.671875 14.0625 61.671875 13.28125 C 61.671875 12.539062 61.515625 11.988281 61.203125 11.621094 C 60.902344 11.246094 60.539062 11.054688 60.109375 11.054688 C 59.691406 11.054688 59.320312 11.257812 58.996094 11.660156 C 58.667969 12.050781 58.507812 12.617188 58.507812 13.359375 Z M 58.507812 13.359375 "/>
<path style=" stroke:none;fill-rule:nonzero;fill:rgb(0%,0%,0%);fill-opacity:1;" d="M 67.691406 16.25 L 67.691406 15.390625 C 67.230469 16.054688 66.617188 16.386719 65.835938 16.386719 C 65.492188 16.386719 65.175781 16.320312 64.878906 16.191406 C 64.574219 16.050781 64.351562 15.878906 64.195312 15.683594 C 64.046875 15.488281 63.949219 15.25 63.902344 14.960938 C 63.863281 14.765625 63.84375 14.453125 63.84375 14.023438 L 63.84375 10.410156 L 64.820312 10.410156 L 64.820312 13.652344 C 64.820312 14.175781 64.84375 14.523438 64.898438 14.6875 C 64.945312 14.953125 65.074219 15.15625 65.269531 15.3125 C 65.472656 15.460938 65.726562 15.527344 66.03125 15.527344 C 66.328125 15.527344 66.605469 15.460938 66.871094 15.3125 C 67.128906 15.15625 67.308594 14.953125 67.417969 14.6875 C 67.519531 14.429688 67.574219 14.042969 67.574219 13.535156 L 67.574219 10.410156 L 68.570312 10.410156 L 68.570312 16.25 Z M 67.691406 16.25 "/>
<path style=" stroke:none;fill-rule:nonzero;fill:rgb(0%,0%,0%);fill-opacity:1;" d="M 72.28125 15.371094 L 72.417969 16.230469 C 72.132812 16.292969 71.882812 16.328125 71.675781 16.328125 C 71.3125 16.328125 71.03125 16.269531 70.835938 16.152344 C 70.640625 16.035156 70.496094 15.890625 70.40625 15.703125 C 70.328125 15.523438 70.289062 15.136719 70.289062 14.550781 L 70.289062 11.191406 L 69.566406 11.191406 L 69.566406 10.410156 L 70.289062 10.410156 L 70.289062 8.964844 L 71.285156 8.378906 L 71.285156 10.410156 L 72.28125 10.410156 L 72.28125 11.191406 L 71.285156 11.191406 L 71.285156 14.589844 C 71.285156 14.878906 71.296875 15.058594 71.324219 15.136719 C 71.363281 15.214844 71.421875 15.28125 71.5 15.332031 C 71.578125 15.386719 71.6875 15.410156 71.832031 15.410156 C 71.949219 15.410156 72.097656 15.398438 72.28125 15.371094 Z M 72.28125 15.371094 "/>
</g>
</svg>
